<?xml version="1.0" encoding="utf-8"?>
<!-- Generator: Adobe Illustrator 22.0.1, SVG Export Plug-In . SVG Version: 6.00 Build 0)  -->
<svg version="1.1" id="Слой_1" xmlns="http://www.w3.org/2000/svg" xmlns:xlink="http://www.w3.org/1999/xlink" x="0px" y="0px"
	 viewBox="0 0 623.5 680.3" style="enable-background:new 0 0 623.5 680.3;" xml:space="preserve">
<style type="text/css">
	.st0{fill:#FFFFFF;}
</style>
<path class="st0" d="M219.5,670.8V295h-69.7V194.2h69.7v-34.7c0-40.4,4.2-69.8,12.8-89.8c8.5-19.7,24.5-36.1,47.4-48.5
	C302.1,9,333.1,2.6,369.3,2.6c33.6,0,69.1,5.6,102.6,16.1l0.9,0.3l-17.4,89.5l-1-0.2c-19.7-4.7-39-7.1-57.4-7.1
	c-18.1,0-30.6,4-38.4,12.4c-7.7,8.2-11.6,24.5-11.6,48.3v32.5h93.8v100.8H347V671H219.5V670.8z"/>
</svg>
