<?xml version="1.0" encoding="utf-8"?>
<!-- Generator: Adobe Illustrator 22.0.1, SVG Export Plug-In . SVG Version: 6.00 Build 0)  -->
<svg version="1.1" id="Capa_1" xmlns="http://www.w3.org/2000/svg" xmlns:xlink="http://www.w3.org/1999/xlink" x="0px" y="0px"
	 viewBox="0 0 600 600" style="enable-background:new 0 0 600 600;" xml:space="preserve">
<style type="text/css">
	.st0{fill:#4E4E4E;}
</style>
<g>
	<path id="LinkedIn_3_" class="st0" d="M600,364.9v221.8H471.3v-207c0-52.1-18.5-87.4-65.1-87.4c-35.6,0-56.6,24-66,47
		c-3.4,8.3-4.4,19.9-4.4,31.4v216H207.4c0,0,1.7-350.5,0-386.8h128.6v54.8c-0.2,0.5-0.5,0.8-0.7,1.3h0.7v-1.3
		c17.2-26.3,47.6-63.9,115.9-63.9C536.6,190.8,600,246,600,364.9z M72.8,13.3C28.8,13.3,0,42.2,0,80.2c0,37,28,66.9,71.1,66.9h0.8
		c44.9,0,72.8-29.8,72.8-66.9C143.8,42.2,116.9,13.3,72.8,13.3z M7.7,586.7h128.6V199.8H7.7V586.7z"/>
</g>
</svg>
