<?xml version="1.0" encoding="utf-8"?>
<!-- Generator: Adobe Illustrator 22.0.1, SVG Export Plug-In . SVG Version: 6.00 Build 0)  -->
<svg version="1.1" id="Capa_1" xmlns="http://www.w3.org/2000/svg" xmlns:xlink="http://www.w3.org/1999/xlink" x="0px" y="0px"
	 viewBox="0 0 600 600" style="enable-background:new 0 0 600 600;" xml:space="preserve">
<style type="text/css">
	.st0{fill:#FFFFFF;}
</style>
<g>
	<g>
		<path class="st0" d="M515.6,345.1c19.9,19.4,40.8,37.7,58.7,59c7.9,9.5,15.3,19.3,21,30.3c8.1,15.7,0.8,32.9-13.3,33.8h-87.3
			c-22.5,1.9-40.5-7.2-55.6-22.6c-12.1-12.3-23.3-25.4-34.9-38.1c-4.8-5.2-9.8-10.1-15.7-14c-11.9-7.7-22.3-5.4-29.1,7.1
			c-6.9,12.6-8.5,26.6-9.2,40.7c-0.9,20.5-7.1,26-27.8,26.9c-44.1,2.1-86-4.6-124.9-26.8c-34.3-19.6-60.9-47.3-84-78.7
			C68.6,301.6,34,234.5,3,165.6c-7-15.5-1.9-23.9,15.3-24.2c28.5-0.5,56.9-0.5,85.4,0c11.6,0.2,19.2,6.8,23.7,17.7
			c15.4,37.9,34.3,73.9,57.9,107.3c6.3,8.9,12.7,17.8,21.9,24.1c10.1,6.9,17.8,4.6,22.6-6.6c3-7.2,4.3-14.8,5-22.5
			c2.2-26.3,2.5-52.6-1.4-78.9c-2.4-16.4-11.7-27-28-30.1c-8.3-1.6-7.1-4.7-3.1-9.4c7-8.2,13.6-13.3,26.8-13.3h98.6
			c15.5,3.1,19,10,21.1,25.7l0.1,109.6c-0.2,6.1,3,24,13.9,28c8.7,2.8,14.5-4.1,19.7-9.7c23.6-25.1,40.5-54.7,55.5-85.4
			c6.7-13.5,12.4-27.5,18-41.5c4.1-10.4,10.6-15.5,22.3-15.3l94.9,0.1c2.8,0,5.7,0,8.4,0.5c16,2.7,20.4,9.6,15.4,25.2
			c-7.8,24.5-22.9,44.9-37.7,65.5c-15.8,21.9-32.8,43.1-48.5,65.1C496.6,317.5,497.7,327.7,515.6,345.1L515.6,345.1z"/>
	</g>
</g>
</svg>
